<svg id="Layer_1" data-name="Layer 1" xmlns="http://www.w3.org/2000/svg" viewBox="0 0 400 400"><defs><style>.cls-1{fill:#b0a060;}.cls-2,.cls-8{fill:none;stroke-miterlimit:10;}.cls-2{stroke:#d1a024;stroke-width:4px;}.cls-3{fill:#83c6a1;}.cls-4{opacity:0.62;}.cls-5{fill:#753e07;}.cls-6{font-size:48px;fill:#fff;font-family:Arial-BoldMT, Arial;font-weight:700;}.cls-7{letter-spacing:-0.02em;}.cls-8{stroke:#4c2400;stroke-width:5px;}</style></defs><title>terrain_buy</title><rect class="cls-1" width="400" height="400" rx="51.14"/><rect class="cls-2" x="14.83" y="15" width="370" height="370" rx="51.14"/><rect class="cls-3" x="420.67" y="102.67" width="15" height="15" transform="translate(494.33 -362) rotate(90)"/><rect class="cls-3" x="420.67" y="147.67" width="15" height="15" transform="translate(539.33 -317) rotate(90)"/><rect class="cls-3" x="420.67" y="192.67" width="15" height="15" transform="translate(584.33 -272) rotate(90)"/><rect class="cls-3" x="420.67" y="237.67" width="15" height="15" transform="translate(629.33 -227) rotate(90)"/><rect class="cls-3" x="420.67" y="282.67" width="15" height="15" transform="translate(674.33 -182) rotate(90)"/><rect class="cls-3" x="420.67" y="327.67" width="15" height="15" transform="translate(719.33 -137) rotate(90)"/><rect class="cls-3" x="420.67" y="372.67" width="15" height="15" transform="translate(764.33 -92) rotate(90)"/><rect class="cls-3" x="51.67" y="102.33" width="15" height="15" transform="translate(125 6.67) rotate(90)"/><rect class="cls-3" x="51.67" y="147.33" width="15" height="15" transform="translate(170 51.67) rotate(90)"/><rect class="cls-3" x="51.67" y="192.33" width="15" height="15" transform="translate(215 96.67) rotate(90)"/><rect class="cls-3" x="51.67" y="237.33" width="15" height="15" transform="translate(260 141.67) rotate(90)"/><rect class="cls-3" x="51.67" y="282.33" width="15" height="15" transform="translate(305 186.67) rotate(90)"/><rect class="cls-3" x="51.67" y="327.33" width="15" height="15" transform="translate(350 231.67) rotate(90)"/><rect class="cls-3" x="51.67" y="372.33" width="15" height="15" transform="translate(395 276.67) rotate(90)"/><rect class="cls-3" x="57.33" y="9" width="15" height="15"/><rect class="cls-3" x="102.33" y="9" width="15" height="15"/><rect class="cls-3" x="147.33" y="9" width="15" height="15"/><rect class="cls-3" x="192.33" y="9" width="15" height="15"/><rect class="cls-3" x="237.33" y="9" width="15" height="15"/><rect class="cls-3" x="282.33" y="9" width="15" height="15"/><rect class="cls-3" x="327.33" y="9" width="15" height="15"/><rect class="cls-3" x="57" y="378" width="15" height="15"/><rect class="cls-3" x="102" y="378" width="15" height="15"/><rect class="cls-3" x="147" y="378" width="15" height="15"/><rect class="cls-3" x="192" y="378" width="15" height="15"/><rect class="cls-3" x="237" y="378" width="15" height="15"/><rect class="cls-3" x="282" y="378" width="15" height="15"/><rect class="cls-3" x="327" y="378" width="15" height="15"/><path class="cls-4" d="M290.65,227.14,269.37,177.9c-2.84-6.58-11.07-9.84-18.38-7.28L123.05,215.43c-7.3,2.55-10.92,10-8.08,16.54l21.28,49.25c2.84,6.58,11.07,9.84,18.37,7.28l60.5-21.19,42.4,77.19,9.52-4.24-42-76.43,57.5-20.14C289.87,241.13,293.49,233.72,290.65,227.14Z" transform="translate(-44 -44)"/><path class="cls-5" d="M322.8,205.33,310.52,145c-1.64-8.06-10.18-12.06-19.07-8.94L135.75,190.8c-8.89,3.13-14.77,12.2-13.13,20.26l12.27,60.33c1.64,8.06,10.18,12.06,19.08,8.94l73.62-25.89L257,348a19.93,19.93,0,0,0,8-2c4-2,4-3,4-3l-29.31-92.81,70-24.6C318.56,222.46,324.44,213.39,322.8,205.33Z" transform="translate(-44 -44)"/><text class="cls-6" transform="translate(102.51 214.04) rotate(-20.31)"><tspan class="cls-7">T</tspan><tspan x="28.45" y="0">O BU</tspan><tspan class="cls-7" x="148.45" y="0">Y</tspan></text><path class="cls-8" d="M275,335.09s-5,19-27,9" transform="translate(-44 -44)"/></svg>