<svg id="Layer_1" data-name="Layer 1" xmlns="http://www.w3.org/2000/svg" viewBox="0 0 400 400"><defs><style>.cls-1{fill:#b0a060;}.cls-2{fill:none;stroke:#d1a024;stroke-miterlimit:10;stroke-width:4px;}.cls-3{fill:#83c6a1;}</style></defs><title>terrain_blank</title><rect class="cls-1" width="400" height="400" rx="51.14"/><rect class="cls-2" x="14.83" y="15" width="370" height="370" rx="51.14"/><rect class="cls-3" x="420.67" y="102.67" width="15" height="15" transform="translate(494.33 -362) rotate(90)"/><rect class="cls-3" x="420.67" y="147.67" width="15" height="15" transform="translate(539.33 -317) rotate(90)"/><rect class="cls-3" x="420.67" y="192.67" width="15" height="15" transform="translate(584.33 -272) rotate(90)"/><rect class="cls-3" x="420.67" y="237.67" width="15" height="15" transform="translate(629.33 -227) rotate(90)"/><rect class="cls-3" x="420.67" y="282.67" width="15" height="15" transform="translate(674.33 -182) rotate(90)"/><rect class="cls-3" x="420.67" y="327.67" width="15" height="15" transform="translate(719.33 -137) rotate(90)"/><rect class="cls-3" x="420.67" y="372.67" width="15" height="15" transform="translate(764.33 -92) rotate(90)"/><rect class="cls-3" x="51.67" y="102.33" width="15" height="15" transform="translate(125 6.67) rotate(90)"/><rect class="cls-3" x="51.67" y="147.33" width="15" height="15" transform="translate(170 51.67) rotate(90)"/><rect class="cls-3" x="51.67" y="192.33" width="15" height="15" transform="translate(215 96.67) rotate(90)"/><rect class="cls-3" x="51.67" y="237.33" width="15" height="15" transform="translate(260 141.67) rotate(90)"/><rect class="cls-3" x="51.67" y="282.33" width="15" height="15" transform="translate(305 186.67) rotate(90)"/><rect class="cls-3" x="51.67" y="327.33" width="15" height="15" transform="translate(350 231.67) rotate(90)"/><rect class="cls-3" x="51.67" y="372.33" width="15" height="15" transform="translate(395 276.67) rotate(90)"/><rect class="cls-3" x="57.33" y="9" width="15" height="15"/><rect class="cls-3" x="102.33" y="9" width="15" height="15"/><rect class="cls-3" x="147.33" y="9" width="15" height="15"/><rect class="cls-3" x="192.33" y="9" width="15" height="15"/><rect class="cls-3" x="237.33" y="9" width="15" height="15"/><rect class="cls-3" x="282.33" y="9" width="15" height="15"/><rect class="cls-3" x="327.33" y="9" width="15" height="15"/><rect class="cls-3" x="57" y="378" width="15" height="15"/><rect class="cls-3" x="102" y="378" width="15" height="15"/><rect class="cls-3" x="147" y="378" width="15" height="15"/><rect class="cls-3" x="192" y="378" width="15" height="15"/><rect class="cls-3" x="237" y="378" width="15" height="15"/><rect class="cls-3" x="282" y="378" width="15" height="15"/><rect class="cls-3" x="327" y="378" width="15" height="15"/></svg>